<svg xmlns="http://www.w3.org/2000/svg" viewBox="-0.5 -0.5 1 1" width="512" height="512">
<polyline points="0.1797,-0.2695 0.1836,-0.2812 0.1562,-0.3281 0.0977,-0.3906 0.0352,-0.4375 0.0078,-0.4453 -0.0234,-0.4648 -0.0391,-0.4648" fill="none" stroke="#1d1b19" stroke-width="0.006" stroke-linecap="round" stroke-linejoin="round"/>
<polyline points="-0.2656,0.0078 -0.2578,0.0508 -0.2383,0.0625 -0.2109,0.0938 -0.2109,0.1211 -0.2031,0.1445 -0.2227,0.1719 -0.2148,0.1953 -0.1641,0.2461 -0.1406,0.2539 -0.1094,0.2500" fill="none" stroke="#1d1b19" stroke-width="0.006" stroke-linecap="round" stroke-linejoin="round"/>
<polyline points="0.1602,-0.0430 0.1289,-0.0703 0.1250,-0.0938 0.0664,-0.1719 0.0312,-0.1875 -0.0195,-0.1875 -0.0508,-0.1953" fill="none" stroke="#1d1b19" stroke-width="0.006" stroke-linecap="round" stroke-linejoin="round"/>
<polyline points="-0.2266,-0.1094 -0.2227,-0.1328 -0.1875,-0.1680 -0.1562,-0.1836 -0.1367,-0.1836" fill="none" stroke="#1d1b19" stroke-width="0.006" stroke-linecap="round" stroke-linejoin="round"/>
<polyline points="0.0430,0.2070 0.1094,0.2461 0.1406,0.2734 0.1602,0.2812 0.1875,0.2812" fill="none" stroke="#1d1b19" stroke-width="0.006" stroke-linecap="round" stroke-linejoin="round"/>
<polyline points="0.4336,0.0625 0.3984,0.0977 0.3789,0.1055 0.3789,0.1328 0.3672,0.1484 0.3633,0.1680" fill="none" stroke="#1d1b19" stroke-width="0.006" stroke-linecap="round" stroke-linejoin="round"/>
<polyline points="-0.4258,0.0703 -0.4297,-0.0078 -0.4141,-0.0312" fill="none" stroke="#1d1b19" stroke-width="0.006" stroke-linecap="round" stroke-linejoin="round"/>
<polyline points="-0.1289,-0.1914 -0.0625,-0.1914 -0.0586,-0.1953" fill="none" stroke="#1d1b19" stroke-width="0.006" stroke-linecap="round" stroke-linejoin="round"/>
<polyline points="0.0391,0.2070 0.0195,0.2266 -0.0430,0.2383 -0.0703,0.2578 -0.0938,0.2578 -0.1055,0.2500" fill="none" stroke="#1d1b19" stroke-width="0.006" stroke-linecap="round" stroke-linejoin="round"/>
<polyline points="-0.1328,-0.1914 -0.1445,-0.2109 -0.1484,-0.2305 -0.1602,-0.2422 -0.1992,-0.2578" fill="none" stroke="#1d1b19" stroke-width="0.006" stroke-linecap="round" stroke-linejoin="round"/>
<polyline points="0.4375,0.0586 0.4414,0.0000 0.4570,-0.0273 0.4609,-0.0586 0.4570,-0.0859" fill="none" stroke="#1d1b19" stroke-width="0.006" stroke-linecap="round" stroke-linejoin="round"/>
<polyline points="-0.4062,-0.0859 -0.4102,-0.0391" fill="none" stroke="#1d1b19" stroke-width="0.006" stroke-linecap="round" stroke-linejoin="round"/>
<polyline points="-0.3828,-0.1016 -0.3789,-0.1250 -0.3672,-0.1445 -0.3164,-0.1992 -0.2578,-0.2383 -0.2383,-0.2383 -0.2031,-0.2578" fill="none" stroke="#1d1b19" stroke-width="0.006" stroke-linecap="round" stroke-linejoin="round"/>
<polyline points="0.2617,0.2656 0.3086,0.2188 0.3125,0.1953 0.3203,0.1836 0.3320,0.1836 0.3633,0.1680" fill="none" stroke="#1d1b19" stroke-width="0.006" stroke-linecap="round" stroke-linejoin="round"/>
<polyline points="0.0391,0.1680 0.0195,0.1445 -0.0508,0.0195 -0.0508,-0.0117 -0.0820,-0.0664 -0.1328,-0.1836" fill="none" stroke="#1d1b19" stroke-width="0.006" stroke-linecap="round" stroke-linejoin="round"/>
<polyline points="0.1953,0.2812 0.2578,0.2656" fill="none" stroke="#1d1b19" stroke-width="0.006" stroke-linecap="round" stroke-linejoin="round"/>
<polyline points="0.0391,0.2031 0.0430,0.1719" fill="none" stroke="#1d1b19" stroke-width="0.006" stroke-linecap="round" stroke-linejoin="round"/>
<polyline points="0.1367,0.0508 0.1562,0.0664 0.1484,0.0898 0.1367,0.1016 0.0977,0.1211 0.0938,0.1289" fill="none" stroke="#1d1b19" stroke-width="0.006" stroke-linecap="round" stroke-linejoin="round"/>
<polyline points="0.0234,0.4727 0.0117,0.4766 -0.0117,0.4648 -0.0273,0.4648 -0.0742,0.4492 -0.0977,0.4375 -0.1094,0.4219" fill="none" stroke="#1d1b19" stroke-width="0.006" stroke-linecap="round" stroke-linejoin="round"/>
<polyline points="-0.2461,0.2656 -0.2500,0.2773 -0.2266,0.3242 -0.1758,0.3750 -0.1133,0.4180" fill="none" stroke="#1d1b19" stroke-width="0.006" stroke-linecap="round" stroke-linejoin="round"/>
<polyline points="-0.0195,0.4297 -0.0586,0.4180 -0.0781,0.4062 -0.1016,0.4102" fill="none" stroke="#1d1b19" stroke-width="0.006" stroke-linecap="round" stroke-linejoin="round"/>
<circle cx="-0.0742" cy="-0.4785" r="0.0125" fill="#1d1b19"/>
<circle cx="0.3442" cy="-0.3481" r="0.0062" fill="#1d1b19"/>
<circle cx="0.3784" cy="-0.3120" r="0.0062" fill="#1d1b19"/>
<circle cx="0.3989" cy="-0.2778" r="0.0062" fill="#1d1b19"/>
<circle cx="-0.2886" cy="-0.2729" r="0.0062" fill="#1d1b19"/>
<circle cx="0.1958" cy="-0.2417" r="0.0062" fill="#1d1b19"/>
<circle cx="-0.3354" cy="-0.2339" r="0.0062" fill="#1d1b19"/>
<circle cx="0.4253" cy="-0.2104" r="0.0062" fill="#1d1b19"/>
<circle cx="0.2036" cy="-0.2026" r="0.0062" fill="#1d1b19"/>
<circle cx="-0.2496" cy="-0.0542" r="0.0130" fill="#1d1b19"/>
<circle cx="-0.2026" cy="-0.0073" r="0.0062" fill="#1d1b19"/>
<circle cx="0.1675" cy="0.0113" r="0.0091" fill="#1d1b19"/>
<circle cx="-0.4590" cy="0.1152" r="0.0136" fill="#1d1b19"/>
<circle cx="-0.4318" cy="0.1773" r="0.0297" fill="#1d1b19"/>
<circle cx="-0.1402" cy="0.1831" r="0.0091" fill="#1d1b19"/>
<circle cx="0.1177" cy="0.1909" r="0.0062" fill="#1d1b19"/>
<circle cx="0.1987" cy="0.2036" r="0.0062" fill="#1d1b19"/>
<circle cx="-0.4416" cy="0.2471" r="0.0227" fill="#1d1b19"/>
<circle cx="-0.3433" cy="0.2378" r="0.0062" fill="#1d1b19"/>
<circle cx="0.3286" cy="0.2534" r="0.0062" fill="#1d1b19"/>
<circle cx="-0.4028" cy="0.2896" r="0.0062" fill="#1d1b19"/>
<circle cx="-0.4341" cy="0.3081" r="0.0062" fill="#1d1b19"/>
<circle cx="-0.4028" cy="0.3598" r="0.0091" fill="#1d1b19"/>
<circle cx="-0.3589" cy="0.3677" r="0.0062" fill="#1d1b19"/>
<circle cx="-0.3589" cy="0.3989" r="0.0062" fill="#1d1b19"/>
<circle cx="-0.3120" cy="0.4253" r="0.0062" fill="#1d1b19"/>
</svg>
