<svg xmlns="http://www.w3.org/2000/svg" viewBox="-0.5 -0.5 1 1" width="512" height="512">
<polyline points="-0.1989,-0.4460 -0.2528,-0.4091 -0.2670,-0.4034" fill="none" stroke="#1d1b19" stroke-width="0.006" stroke-linecap="round" stroke-linejoin="round"/>
<polyline points="-0.2784,0.1392 -0.3011,0.1392 -0.3409,0.1278 -0.3693,0.1108 -0.3977,0.0824 -0.4261,0.0341 -0.4432,-0.0199 -0.4432,-0.0341 -0.4489,-0.0398 -0.4489,-0.1250 -0.4432,-0.1335 -0.4432,-0.1534 -0.4375,-0.1818 -0.4318,-0.1903 -0.4318,-0.2045 -0.4233,-0.2216 -0.4034,-0.2898 -0.3920,-0.3153 -0.3636,-0.3466 -0.3438,-0.3608 -0.3153,-0.3636 -0.3040,-0.3722" fill="none" stroke="#1d1b19" stroke-width="0.006" stroke-linecap="round" stroke-linejoin="round"/>
<polyline points="-0.3040,-0.3750 -0.2983,-0.3920 -0.2898,-0.4006 -0.2727,-0.4062 -0.2670,-0.4034" fill="none" stroke="#1d1b19" stroke-width="0.006" stroke-linecap="round" stroke-linejoin="round"/>
<polyline points="-0.3011,-0.3722 -0.2699,-0.3778" fill="none" stroke="#1d1b19" stroke-width="0.006" stroke-linecap="round" stroke-linejoin="round"/>
<polyline points="-0.1875,-0.3892 -0.1903,-0.3920 -0.2131,-0.3892 -0.2472,-0.3750 -0.2642,-0.3778" fill="none" stroke="#1d1b19" stroke-width="0.006" stroke-linecap="round" stroke-linejoin="round"/>
<polyline points="-0.2670,-0.3807 -0.2670,-0.4034" fill="none" stroke="#1d1b19" stroke-width="0.006" stroke-linecap="round" stroke-linejoin="round"/>
<polyline points="0.1051,-0.3352 0.1051,-0.3494 0.0966,-0.3580 0.0597,-0.3580 0.0426,-0.3494 0.0312,-0.3494 -0.0057,-0.3381 -0.0284,-0.3267 -0.0540,-0.3267 -0.0767,-0.3381" fill="none" stroke="#1d1b19" stroke-width="0.006" stroke-linecap="round" stroke-linejoin="round"/>
<polyline points="-0.1989,-0.1420 -0.1562,-0.1648 -0.1420,-0.1676 -0.1335,-0.1847" fill="none" stroke="#1d1b19" stroke-width="0.006" stroke-linecap="round" stroke-linejoin="round"/>
<polyline points="-0.0994,-0.3011 -0.1193,-0.2898 -0.1193,-0.2812 -0.1307,-0.2614 -0.1392,-0.2273 -0.1392,-0.2017 -0.1335,-0.1903" fill="none" stroke="#1d1b19" stroke-width="0.006" stroke-linecap="round" stroke-linejoin="round"/>
<polyline points="-0.0795,-0.3381 -0.0938,-0.3239 -0.0966,-0.3040" fill="none" stroke="#1d1b19" stroke-width="0.006" stroke-linecap="round" stroke-linejoin="round"/>
<polyline points="-0.0909,-0.1506 -0.0824,-0.1562 -0.0426,-0.1562 -0.0284,-0.1420" fill="none" stroke="#1d1b19" stroke-width="0.006" stroke-linecap="round" stroke-linejoin="round"/>
<polyline points="0.1392,-0.2784 0.1562,-0.2841 0.1761,-0.2670 0.1761,-0.2472 0.1506,-0.1960" fill="none" stroke="#1d1b19" stroke-width="0.006" stroke-linecap="round" stroke-linejoin="round"/>
<polyline points="0.1477,-0.0625 0.1591,-0.0795 0.1676,-0.1108 0.1676,-0.1335 0.1562,-0.1506" fill="none" stroke="#1d1b19" stroke-width="0.006" stroke-linecap="round" stroke-linejoin="round"/>
<polyline points="-0.0369,-0.0938 -0.0170,-0.0682" fill="none" stroke="#1d1b19" stroke-width="0.006" stroke-linecap="round" stroke-linejoin="round"/>
<polyline points="-0.0881,0.1250 -0.1051,0.1222" fill="none" stroke="#1d1b19" stroke-width="0.006" stroke-linecap="round" stroke-linejoin="round"/>
<polyline points="0.0227,0.1193 0.0199,0.0994" fill="none" stroke="#1d1b19" stroke-width="0.006" stroke-linecap="round" stroke-linejoin="round"/>
<polyline points="0.0199,0.0568 0.0114,0.0511 0.0085,0.0426" fill="none" stroke="#1d1b19" stroke-width="0.006" stroke-linecap="round" stroke-linejoin="round"/>
<polyline points="-0.0369,-0.0398 -0.0568,-0.0398 -0.0710,-0.0540" fill="none" stroke="#1d1b19" stroke-width="0.006" stroke-linecap="round" stroke-linejoin="round"/>
<polyline points="0.0540,0.1847 0.0426,0.1847 0.0284,0.1705 0.0170,0.1420" fill="none" stroke="#1d1b19" stroke-width="0.006" stroke-linecap="round" stroke-linejoin="round"/>
<polyline points="-0.0398,-0.0938 -0.0625,-0.0824 -0.0710,-0.0568" fill="none" stroke="#1d1b19" stroke-width="0.006" stroke-linecap="round" stroke-linejoin="round"/>
<polyline points="-0.0142,-0.0625 -0.0085,-0.0568 0.0540,-0.0597" fill="none" stroke="#1d1b19" stroke-width="0.006" stroke-linecap="round" stroke-linejoin="round"/>
<polyline points="-0.1051,0.1222 -0.1193,0.1278 -0.1449,0.1307 -0.1761,0.1278 -0.1847,0.1165 -0.1790,0.0966" fill="none" stroke="#1d1b19" stroke-width="0.006" stroke-linecap="round" stroke-linejoin="round"/>
<polyline points="-0.0284,-0.0170 -0.0341,-0.0369" fill="none" stroke="#1d1b19" stroke-width="0.006" stroke-linecap="round" stroke-linejoin="round"/>
<polyline points="0.0142,0.1392 0.0114,0.1420 -0.0227,0.1420" fill="none" stroke="#1d1b19" stroke-width="0.006" stroke-linecap="round" stroke-linejoin="round"/>
<polyline points="-0.0256,0.1392 -0.0426,0.1080" fill="none" stroke="#1d1b19" stroke-width="0.006" stroke-linecap="round" stroke-linejoin="round"/>
<polyline points="0.0199,0.0966 0.0227,0.0938 0.0227,0.0597" fill="none" stroke="#1d1b19" stroke-width="0.006" stroke-linecap="round" stroke-linejoin="round"/>
<polyline points="0.0085,-0.1733 -0.0057,-0.1676 -0.0256,-0.1420" fill="none" stroke="#1d1b19" stroke-width="0.006" stroke-linecap="round" stroke-linejoin="round"/>
<polyline points="0.0682,-0.0994 0.0824,-0.1222" fill="none" stroke="#1d1b19" stroke-width="0.006" stroke-linecap="round" stroke-linejoin="round"/>
<polyline points="0.0824,-0.1222 0.0710,-0.1335 0.0540,-0.1392 0.0398,-0.1534 0.0114,-0.1705" fill="none" stroke="#1d1b19" stroke-width="0.006" stroke-linecap="round" stroke-linejoin="round"/>
<polyline points="0.0824,-0.1222 0.1080,-0.1420 0.1250,-0.1477 0.1534,-0.1477 0.1562,-0.1506" fill="none" stroke="#1d1b19" stroke-width="0.006" stroke-linecap="round" stroke-linejoin="round"/>
<polyline points="-0.0852,0.1278 -0.0824,0.1562 -0.0682,0.1733 -0.0540,0.1733 -0.0341,0.1648 -0.0256,0.1534 -0.0256,0.1449" fill="none" stroke="#1d1b19" stroke-width="0.006" stroke-linecap="round" stroke-linejoin="round"/>
<polyline points="-0.0284,-0.1392 -0.0369,-0.0966" fill="none" stroke="#1d1b19" stroke-width="0.006" stroke-linecap="round" stroke-linejoin="round"/>
<polyline points="0.0170,0.0966 -0.0426,0.1023" fill="none" stroke="#1d1b19" stroke-width="0.006" stroke-linecap="round" stroke-linejoin="round"/>
<polyline points="-0.0114,0.0398 0.0057,0.0398" fill="none" stroke="#1d1b19" stroke-width="0.006" stroke-linecap="round" stroke-linejoin="round"/>
<polyline points="0.0341,0.0284 0.0170,0.0312 0.0085,0.0398" fill="none" stroke="#1d1b19" stroke-width="0.006" stroke-linecap="round" stroke-linejoin="round"/>
<polyline points="0.0227,0.1222 0.0170,0.1364" fill="none" stroke="#1d1b19" stroke-width="0.006" stroke-linecap="round" stroke-linejoin="round"/>
<polyline points="0.0682,-0.0966 0.0568,-0.0625" fill="none" stroke="#1d1b19" stroke-width="0.006" stroke-linecap="round" stroke-linejoin="round"/>
<polyline points="-0.0824,0.1250 -0.0483,0.1080" fill="none" stroke="#1d1b19" stroke-width="0.006" stroke-linecap="round" stroke-linejoin="round"/>
<polyline points="-0.0199,-0.0625 -0.0256,-0.0483 -0.0341,-0.0398" fill="none" stroke="#1d1b19" stroke-width="0.006" stroke-linecap="round" stroke-linejoin="round"/>
<polyline points="-0.0455,0.0994 -0.0369,0.0597 -0.0170,0.0398" fill="none" stroke="#1d1b19" stroke-width="0.006" stroke-linecap="round" stroke-linejoin="round"/>
<polyline points="0.0597,0.1847 0.0767,0.1676 0.0881,0.1477 0.0881,0.1250 0.0795,0.1165 0.0653,0.1108 0.0483,0.1108 0.0256,0.1193" fill="none" stroke="#1d1b19" stroke-width="0.006" stroke-linecap="round" stroke-linejoin="round"/>
<polyline points="0.0369,0.0312 0.0341,0.0483 0.0227,0.0568" fill="none" stroke="#1d1b19" stroke-width="0.006" stroke-linecap="round" stroke-linejoin="round"/>
<polyline points="0.0426,-0.0028 0.0369,0.0256" fill="none" stroke="#1d1b19" stroke-width="0.006" stroke-linecap="round" stroke-linejoin="round"/>
<polyline points="0.0568,-0.0568 0.0568,-0.0284 0.0455,-0.0057" fill="none" stroke="#1d1b19" stroke-width="0.006" stroke-linecap="round" stroke-linejoin="round"/>
<polyline points="-0.0284,-0.0114 -0.0256,0.0142 -0.0142,0.0369" fill="none" stroke="#1d1b19" stroke-width="0.006" stroke-linecap="round" stroke-linejoin="round"/>
<polyline points="0.1562,-0.1506 0.1591,-0.1591 0.1506,-0.1932" fill="none" stroke="#1d1b19" stroke-width="0.006" stroke-linecap="round" stroke-linejoin="round"/>
<polyline points="0.1903,0.0227 0.1705,0.0511 0.1477,0.0710 0.1136,0.0767" fill="none" stroke="#1d1b19" stroke-width="0.006" stroke-linecap="round" stroke-linejoin="round"/>
<polyline points="0.3125,0.2102 0.3040,0.2045 0.2898,0.1790 0.2727,0.1591 0.2784,0.1278" fill="none" stroke="#1d1b19" stroke-width="0.006" stroke-linecap="round" stroke-linejoin="round"/>
<polyline points="-0.1648,0.3011 -0.1392,0.3011 -0.0824,0.2727 -0.0568,0.2699" fill="none" stroke="#1d1b19" stroke-width="0.006" stroke-linecap="round" stroke-linejoin="round"/>
<polyline points="0.0114,0.3352 -0.0170,0.3523 -0.0426,0.3494 -0.0540,0.3381 -0.0568,0.3210 -0.0540,0.2727" fill="none" stroke="#1d1b19" stroke-width="0.006" stroke-linecap="round" stroke-linejoin="round"/>
<circle cx="-0.0167" cy="-0.4179" r="0.0095" fill="#1d1b19"/>
<circle cx="0.1786" cy="-0.4009" r="0.0066" fill="#1d1b19"/>
<circle cx="-0.2191" cy="-0.3349" r="0.0045" fill="#1d1b19"/>
<circle cx="0.2958" cy="-0.3214" r="0.0066" fill="#1d1b19"/>
<circle cx="-0.1790" cy="0.0767" r="0.0086" fill="#1d1b19"/>
<circle cx="-0.1903" cy="0.0511" r="0.0072" fill="#1d1b19"/>
<circle cx="-0.2131" cy="0.0455" r="0.0086" fill="#1d1b19"/>
<circle cx="-0.2415" cy="0.0483" r="0.0089" fill="#1d1b19"/>
<circle cx="-0.2614" cy="0.0369" r="0.0101" fill="#1d1b19"/>
<circle cx="-0.2557" cy="0.0114" r="0.0088" fill="#1d1b19"/>
<circle cx="-0.2500" cy="-0.0142" r="0.0101" fill="#1d1b19"/>
<circle cx="0.2809" cy="-0.2269" r="0.0095" fill="#1d1b19"/>
<circle cx="0.3093" cy="-0.1225" r="0.0095" fill="#1d1b19"/>
<circle cx="-0.1416" cy="-0.0656" r="0.0185" fill="#1d1b19"/>
<circle cx="0.3580" cy="-0.0170" r="0.0120" fill="#1d1b19"/>
<circle cx="0.3015" cy="0.0231" r="0.0095" fill="#1d1b19"/>
<circle cx="0.3412" cy="0.0537" r="0.0095" fill="#1d1b19"/>
<circle cx="0.1708" cy="0.1105" r="0.0095" fill="#1d1b19"/>
<circle cx="0.3778" cy="0.1477" r="0.0120" fill="#1d1b19"/>
<circle cx="0.1736" cy="0.2472" r="0.0331" fill="#1d1b19"/>
<circle cx="-0.1850" cy="0.2071" r="0.0095" fill="#1d1b19"/>
<circle cx="-0.3122" cy="0.2617" r="0.0095" fill="#1d1b19"/>
<circle cx="0.0366" cy="0.2866" r="0.0152" fill="#1d1b19"/>
<circle cx="-0.1111" cy="0.3299" r="0.0095" fill="#1d1b19"/>
<circle cx="-0.0088" cy="0.3889" r="0.0095" fill="#1d1b19"/>
<circle cx="-0.0941" cy="0.4492" r="0.0095" fill="#1d1b19"/>
<circle cx="-0.2610" cy="0.4549" r="0.0095" fill="#1d1b19"/>
<ellipse cx="0.0196" cy="-0.1330" rx="0.1233" ry="0.0821" transform="rotate(179.97 0.0196 -0.1330)" fill="#1d1b19"/>
<ellipse cx="0.0260" cy="0.1153" rx="0.0536" ry="0.0356" transform="rotate(93.74 0.0260 0.1153)" fill="#1d1b19"/>
<ellipse cx="0.2785" cy="0.1233" rx="0.0219" ry="0.0122" transform="rotate(-153.27 0.2785 0.1233)" fill="#1d1b19"/>
</svg>
