<svg xmlns="http://www.w3.org/2000/svg" viewBox="-0.5 -0.5 1 1" width="512" height="512">
<polyline points="0.0344,0.1406 0.0031,0.1312 -0.0125,0.1312 -0.0344,0.1219" fill="none" stroke="#1d1b19" stroke-width="0.006" stroke-linecap="round" stroke-linejoin="round"/>
<polyline points="-0.2562,0.0906 -0.2500,0.0750 -0.2594,0.0656" fill="none" stroke="#1d1b19" stroke-width="0.006" stroke-linecap="round" stroke-linejoin="round"/>
<polyline points="-0.0125,-0.1219 -0.0156,-0.1094 -0.0094,-0.0625 0.0125,-0.0344" fill="none" stroke="#1d1b19" stroke-width="0.006" stroke-linecap="round" stroke-linejoin="round"/>
<polyline points="-0.0656,0.0781 -0.0531,0.0875 -0.0375,0.0906" fill="none" stroke="#1d1b19" stroke-width="0.006" stroke-linecap="round" stroke-linejoin="round"/>
<polyline points="-0.0062,0.0281 0.0156,0.0031" fill="none" stroke="#1d1b19" stroke-width="0.006" stroke-linecap="round" stroke-linejoin="round"/>
<polyline points="-0.3375,-0.0219 -0.2781,-0.0219 -0.2750,-0.0187" fill="none" stroke="#1d1b19" stroke-width="0.006" stroke-linecap="round" stroke-linejoin="round"/>
<polyline points="-0.3375,-0.0219 -0.3438,-0.0125 -0.3719,-0.0125 -0.3906,-0.0031 -0.4094,0.0250" fill="none" stroke="#1d1b19" stroke-width="0.006" stroke-linecap="round" stroke-linejoin="round"/>
<polyline points="-0.2125,-0.0250 -0.2000,-0.0375 -0.1594,-0.0406 -0.1500,-0.0531" fill="none" stroke="#1d1b19" stroke-width="0.006" stroke-linecap="round" stroke-linejoin="round"/>
<polyline points="-0.1094,0.0781 -0.1406,0.0719 -0.1531,0.0594 -0.1562,0.0406" fill="none" stroke="#1d1b19" stroke-width="0.006" stroke-linecap="round" stroke-linejoin="round"/>
<polyline points="0.1500,-0.0250 0.1531,0.0188 0.1375,0.0406" fill="none" stroke="#1d1b19" stroke-width="0.006" stroke-linecap="round" stroke-linejoin="round"/>
<polyline points="-0.0344,0.1219 -0.0344,0.0938" fill="none" stroke="#1d1b19" stroke-width="0.006" stroke-linecap="round" stroke-linejoin="round"/>
<polyline points="-0.0344,0.1219 -0.0375,0.1250 -0.0719,0.1219 -0.0812,0.1125 -0.0906,0.0813" fill="none" stroke="#1d1b19" stroke-width="0.006" stroke-linecap="round" stroke-linejoin="round"/>
<polyline points="0.0188,0.0000 0.0125,-0.0281" fill="none" stroke="#1d1b19" stroke-width="0.006" stroke-linecap="round" stroke-linejoin="round"/>
<polyline points="-0.1469,-0.0531 -0.1437,-0.0500 -0.1125,-0.0500" fill="none" stroke="#1d1b19" stroke-width="0.006" stroke-linecap="round" stroke-linejoin="round"/>
<polyline points="-0.2156,-0.0250 -0.2625,-0.0250 -0.2719,-0.0187" fill="none" stroke="#1d1b19" stroke-width="0.006" stroke-linecap="round" stroke-linejoin="round"/>
<polyline points="0.0219,0.0031 0.0563,0.0281" fill="none" stroke="#1d1b19" stroke-width="0.006" stroke-linecap="round" stroke-linejoin="round"/>
<polyline points="0.1625,-0.0250 0.1719,-0.0156 0.1781,-0.0156 0.2031,0.0125 0.2094,0.0125" fill="none" stroke="#1d1b19" stroke-width="0.006" stroke-linecap="round" stroke-linejoin="round"/>
<polyline points="-0.2719,-0.0156 -0.2687,0.0563" fill="none" stroke="#1d1b19" stroke-width="0.006" stroke-linecap="round" stroke-linejoin="round"/>
<polyline points="0.1344,0.0687 0.1344,0.0437" fill="none" stroke="#1d1b19" stroke-width="0.006" stroke-linecap="round" stroke-linejoin="round"/>
<polyline points="-0.1250,0.0281 -0.1125,0.0469 -0.1063,0.0750" fill="none" stroke="#1d1b19" stroke-width="0.006" stroke-linecap="round" stroke-linejoin="round"/>
<polyline points="-0.0656,0.0719 -0.0594,0.0563 -0.0438,0.0406 -0.0094,0.0312" fill="none" stroke="#1d1b19" stroke-width="0.006" stroke-linecap="round" stroke-linejoin="round"/>
<polyline points="-0.1531,0.0375 -0.1469,0.0312 -0.1281,0.0281" fill="none" stroke="#1d1b19" stroke-width="0.006" stroke-linecap="round" stroke-linejoin="round"/>
<polyline points="0.0656,-0.0906 0.0125,-0.0344" fill="none" stroke="#1d1b19" stroke-width="0.006" stroke-linecap="round" stroke-linejoin="round"/>
<polyline points="-0.1094,-0.0469 -0.1063,-0.0187 -0.1000,-0.0062" fill="none" stroke="#1d1b19" stroke-width="0.006" stroke-linecap="round" stroke-linejoin="round"/>
<polyline points="0.0906,0.0875 0.1188,0.0844 0.1344,0.0750" fill="none" stroke="#1d1b19" stroke-width="0.006" stroke-linecap="round" stroke-linejoin="round"/>
<polyline points="0.2562,-0.0125 0.2750,-0.0094 0.2875,0.0000 0.2906,0.0281" fill="none" stroke="#1d1b19" stroke-width="0.006" stroke-linecap="round" stroke-linejoin="round"/>
<polyline points="0.0625,0.0281 0.0844,0.0375 0.1312,0.0406" fill="none" stroke="#1d1b19" stroke-width="0.006" stroke-linecap="round" stroke-linejoin="round"/>
<polyline points="-0.2125,-0.0219 -0.1937,0.0125 -0.1937,0.0219 -0.1781,0.0344 -0.1594,0.0375" fill="none" stroke="#1d1b19" stroke-width="0.006" stroke-linecap="round" stroke-linejoin="round"/>
<polyline points="0.0875,0.0875 0.0781,0.0781 0.0594,0.0312" fill="none" stroke="#1d1b19" stroke-width="0.006" stroke-linecap="round" stroke-linejoin="round"/>
<polyline points="0.2531,-0.0125 0.2406,0.0031 0.2156,0.0125" fill="none" stroke="#1d1b19" stroke-width="0.006" stroke-linecap="round" stroke-linejoin="round"/>
<polyline points="-0.0969,-0.0062 -0.0500,-0.0094 -0.0281,-0.0281" fill="none" stroke="#1d1b19" stroke-width="0.006" stroke-linecap="round" stroke-linejoin="round"/>
<polyline points="-0.0281,-0.0312 -0.0500,-0.0531 -0.0812,-0.0625" fill="none" stroke="#1d1b19" stroke-width="0.006" stroke-linecap="round" stroke-linejoin="round"/>
<polyline points="-0.3344,0.0594 -0.3281,0.0625 -0.2719,0.0625 -0.2687,0.0594" fill="none" stroke="#1d1b19" stroke-width="0.006" stroke-linecap="round" stroke-linejoin="round"/>
<polyline points="-0.0875,0.0781 -0.0687,0.0750" fill="none" stroke="#1d1b19" stroke-width="0.006" stroke-linecap="round" stroke-linejoin="round"/>
<polyline points="0.2906,0.0281 0.3031,0.0406 0.3125,0.0437 0.3250,0.0437 0.3313,0.0375" fill="none" stroke="#1d1b19" stroke-width="0.006" stroke-linecap="round" stroke-linejoin="round"/>
<polyline points="-0.0062,0.0344 -0.0156,0.0563 -0.0156,0.0687 -0.0312,0.0906" fill="none" stroke="#1d1b19" stroke-width="0.006" stroke-linecap="round" stroke-linejoin="round"/>
<polyline points="0.1469,-0.0281 0.1375,-0.0281 0.1188,-0.0469 0.1000,-0.0812 0.0906,-0.0875 0.0687,-0.0906" fill="none" stroke="#1d1b19" stroke-width="0.006" stroke-linecap="round" stroke-linejoin="round"/>
<polyline points="-0.1250,0.0250 -0.1219,0.0156 -0.1000,-0.0031" fill="none" stroke="#1d1b19" stroke-width="0.006" stroke-linecap="round" stroke-linejoin="round"/>
<polyline points="-0.0250,-0.0281 0.0094,-0.0312" fill="none" stroke="#1d1b19" stroke-width="0.006" stroke-linecap="round" stroke-linejoin="round"/>
<polyline points="-0.1063,-0.0500 -0.0844,-0.0625" fill="none" stroke="#1d1b19" stroke-width="0.006" stroke-linecap="round" stroke-linejoin="round"/>
<polyline points="0.3063,-0.0312 0.3250,-0.0312 0.3406,-0.0187 0.3531,-0.0156 0.3750,0.0000 0.3906,0.0219 0.4031,0.0281" fill="none" stroke="#1d1b19" stroke-width="0.006" stroke-linecap="round" stroke-linejoin="round"/>
<circle cx="0.0441" cy="-0.1496" r="0.0073" fill="#1d1b19"/>
<circle cx="-0.1035" cy="-0.1347" r="0.0073" fill="#1d1b19"/>
<circle cx="-0.1996" cy="0.0691" r="0.0073" fill="#1d1b19"/>
<ellipse cx="-0.4179" cy="0.0248" rx="0.0375" ry="0.0282" transform="rotate(152.75 -0.4179 0.0248)" fill="#1d1b19"/>
<ellipse cx="0.4044" cy="0.0260" rx="0.0523" ry="0.0332" transform="rotate(-145.36 0.4044 0.0260)" fill="#1d1b19"/>
</svg>
