<svg xmlns="http://www.w3.org/2000/svg" viewBox="-0.5 -0.5 1 1" width="512" height="512">
<polyline points="0.1042,0.1615 0.0625,0.1198 -0.0260,0.0833" fill="none" stroke="#1d1b19" stroke-width="0.006" stroke-linecap="round" stroke-linejoin="round"/>
<polyline points="0.3385,-0.2292 0.2760,-0.2188 0.2500,-0.2031 0.2344,-0.2031 0.1719,-0.1719 0.1458,-0.1510 0.1354,-0.1510 0.0781,-0.1094 -0.0052,-0.0885 -0.0312,-0.0625" fill="none" stroke="#1d1b19" stroke-width="0.006" stroke-linecap="round" stroke-linejoin="round"/>
<polyline points="0.0104,0.3698 0.0156,0.3542 -0.0052,0.3333 -0.0469,0.2396 -0.0573,0.1042 -0.0365,0.0833" fill="none" stroke="#1d1b19" stroke-width="0.006" stroke-linecap="round" stroke-linejoin="round"/>
<polyline points="-0.0573,-0.3385 -0.0573,-0.2083 -0.0781,-0.1875" fill="none" stroke="#1d1b19" stroke-width="0.006" stroke-linecap="round" stroke-linejoin="round"/>
<polyline points="-0.0417,-0.0625 -0.0625,-0.0833 -0.0781,-0.1823" fill="none" stroke="#1d1b19" stroke-width="0.006" stroke-linecap="round" stroke-linejoin="round"/>
<polyline points="-0.0365,0.0521 -0.0312,0.0781" fill="none" stroke="#1d1b19" stroke-width="0.006" stroke-linecap="round" stroke-linejoin="round"/>
<polyline points="-0.0417,0.0521 -0.1823,0.0990 -0.2344,0.1510 -0.2969,0.2292" fill="none" stroke="#1d1b19" stroke-width="0.006" stroke-linecap="round" stroke-linejoin="round"/>
<polyline points="-0.0365,-0.0573 -0.0365,0.0469" fill="none" stroke="#1d1b19" stroke-width="0.006" stroke-linecap="round" stroke-linejoin="round"/>
</svg>
