<svg xmlns="http://www.w3.org/2000/svg" viewBox="-0.5 -0.5 1 1" width="512" height="512">
<polyline points="0.0729,0.2917 0.0521,0.2344 0.0417,0.1562 0.0469,0.1198" fill="none" stroke="#1d1b19" stroke-width="0.006" stroke-linecap="round" stroke-linejoin="round"/>
<polyline points="0.1562,-0.1979 0.1198,-0.1667 0.0365,-0.1354" fill="none" stroke="#1d1b19" stroke-width="0.006" stroke-linecap="round" stroke-linejoin="round"/>
<polyline points="-0.1875,-0.1562 -0.1615,-0.1406 -0.0208,0.0000" fill="none" stroke="#1d1b19" stroke-width="0.006" stroke-linecap="round" stroke-linejoin="round"/>
<polyline points="-0.3958,0.0469 -0.3750,0.0417 -0.3594,0.0521 -0.1146,0.0521 -0.0990,0.0625" fill="none" stroke="#1d1b19" stroke-width="0.006" stroke-linecap="round" stroke-linejoin="round"/>
<polyline points="-0.0052,-0.3438 -0.0104,-0.3177 0.0052,-0.2656 0.0104,-0.1771 0.0156,-0.1510 0.0312,-0.1354" fill="none" stroke="#1d1b19" stroke-width="0.006" stroke-linecap="round" stroke-linejoin="round"/>
<polyline points="-0.1771,0.3490 -0.1719,0.3438 -0.1719,0.2760 -0.1302,0.1823 -0.1146,0.1042 -0.0990,0.0677" fill="none" stroke="#1d1b19" stroke-width="0.006" stroke-linecap="round" stroke-linejoin="round"/>
<polyline points="0.3906,-0.0260 0.3542,-0.0208 0.3281,-0.0312 0.2760,-0.0156 0.1875,-0.0104 0.1406,0.0052 0.0729,0.0104 0.0312,0.0521" fill="none" stroke="#1d1b19" stroke-width="0.006" stroke-linecap="round" stroke-linejoin="round"/>
<polyline points="-0.0208,0.0208 -0.0625,0.0625 -0.0938,0.0677" fill="none" stroke="#1d1b19" stroke-width="0.006" stroke-linecap="round" stroke-linejoin="round"/>
<polyline points="0.0312,0.0521 0.0104,0.0469 -0.0156,0.0208" fill="none" stroke="#1d1b19" stroke-width="0.006" stroke-linecap="round" stroke-linejoin="round"/>
<polyline points="0.0312,0.0521 0.0469,0.0677 0.0521,0.1094" fill="none" stroke="#1d1b19" stroke-width="0.006" stroke-linecap="round" stroke-linejoin="round"/>
<polyline points="0.0312,-0.1302 0.0312,-0.0469 -0.0156,0.0000" fill="none" stroke="#1d1b19" stroke-width="0.006" stroke-linecap="round" stroke-linejoin="round"/>
</svg>
