<svg xmlns="http://www.w3.org/2000/svg" viewBox="-0.5 -0.5 1 1" width="512" height="512">
<circle cx="0.1982" cy="-0.3883" r="0.0087" fill="#1d1b19"/>
<circle cx="0.3773" cy="-0.2685" r="0.0087" fill="#1d1b19"/>
<circle cx="-0.0342" cy="-0.1403" r="0.0087" fill="#1d1b19"/>
<circle cx="0.4326" cy="-0.1435" r="0.0061" fill="#1d1b19"/>
<circle cx="0.0833" cy="-0.0859" r="0.0110" fill="#1d1b19"/>
<circle cx="-0.1716" cy="-0.0862" r="0.0087" fill="#1d1b19"/>
<circle cx="0.1513" cy="-0.0498" r="0.0087" fill="#1d1b19"/>
<circle cx="0.1638" cy="-0.0049" r="0.0087" fill="#1d1b19"/>
<circle cx="0.4711" cy="0.0368" r="0.0087" fill="#1d1b19"/>
<circle cx="-0.2604" cy="0.0573" r="0.0110" fill="#1d1b19"/>
<circle cx="-0.0029" cy="0.0648" r="0.0087" fill="#1d1b19"/>
<circle cx="0.1409" cy="0.0940" r="0.0087" fill="#1d1b19"/>
<circle cx="0.0420" cy="0.1273" r="0.0087" fill="#1d1b19"/>
<circle cx="-0.2656" cy="0.1823" r="0.0110" fill="#1d1b19"/>
<circle cx="0.4193" cy="0.1849" r="0.0110" fill="#1d1b19"/>
<circle cx="0.3047" cy="0.3255" r="0.0110" fill="#1d1b19"/>
<circle cx="-0.2552" cy="0.3307" r="0.0110" fill="#1d1b19"/>
<circle cx="0.1484" cy="0.4245" r="0.0110" fill="#1d1b19"/>
<circle cx="-0.1797" cy="0.4271" r="0.0110" fill="#1d1b19"/>
<circle cx="-0.0026" cy="0.4557" r="0.0110" fill="#1d1b19"/>
</svg>
