<svg xmlns="http://www.w3.org/2000/svg" viewBox="-0.5 -0.5 1 1" width="512" height="512">
<circle cx="0.4252" cy="-0.3917" r="0.0235" fill="#1d1b19"/>
<circle cx="0.4899" cy="-0.2789" r="0.0087" fill="#1d1b19"/>
<circle cx="0.0408" cy="-0.2154" r="0.0306" fill="#1d1b19"/>
<circle cx="-0.1258" cy="-0.1733" r="0.0253" fill="#1d1b19"/>
<circle cx="0.2083" cy="-0.1875" r="0.0099" fill="#1d1b19"/>
<circle cx="0.2318" cy="-0.1719" r="0.0078" fill="#1d1b19"/>
<circle cx="0.2422" cy="-0.1484" r="0.0087" fill="#1d1b19"/>
<circle cx="0.2422" cy="-0.1198" r="0.0101" fill="#1d1b19"/>
<circle cx="0.2292" cy="-0.0990" r="0.0082" fill="#1d1b19"/>
<circle cx="0.2057" cy="-0.0859" r="0.0091" fill="#1d1b19"/>
<circle cx="0.1823" cy="-0.0781" r="0.0082" fill="#1d1b19"/>
<circle cx="0.1562" cy="-0.0859" r="0.0094" fill="#1d1b19"/>
<circle cx="0.1406" cy="-0.1068" r="0.0086" fill="#1d1b19"/>
<circle cx="0.1458" cy="-0.1354" r="0.0076" fill="#1d1b19"/>
<circle cx="0.1667" cy="-0.1484" r="0.0077" fill="#1d1b19"/>
<circle cx="0.4844" cy="-0.1120" r="0.0110" fill="#1d1b19"/>
<circle cx="-0.2578" cy="-0.0506" r="0.0331" fill="#1d1b19"/>
<circle cx="-0.0182" cy="-0.0286" r="0.0077" fill="#1d1b19"/>
<circle cx="-0.0339" cy="-0.0078" r="0.0086" fill="#1d1b19"/>
<circle cx="-0.0417" cy="0.0182" r="0.0092" fill="#1d1b19"/>
<circle cx="-0.0469" cy="0.0417" r="0.0100" fill="#1d1b19"/>
<circle cx="-0.0417" cy="0.0677" r="0.0092" fill="#1d1b19"/>
<circle cx="-0.0260" cy="0.0885" r="0.0095" fill="#1d1b19"/>
<circle cx="-0.0026" cy="0.0964" r="0.0074" fill="#1d1b19"/>
<circle cx="0.0260" cy="0.0990" r="0.0081" fill="#1d1b19"/>
<circle cx="0.0495" cy="0.0911" r="0.0082" fill="#1d1b19"/>
<circle cx="0.4714" cy="0.0515" r="0.0256" fill="#1d1b19"/>
<circle cx="-0.3290" cy="0.1356" r="0.0295" fill="#1d1b19"/>
<circle cx="0.4002" cy="0.1995" r="0.0279" fill="#1d1b19"/>
<circle cx="-0.3047" cy="0.2839" r="0.0091" fill="#1d1b19"/>
<circle cx="-0.3125" cy="0.3073" r="0.0078" fill="#1d1b19"/>
<circle cx="-0.2995" cy="0.3307" r="0.0078" fill="#1d1b19"/>
<circle cx="-0.2760" cy="0.3359" r="0.0080" fill="#1d1b19"/>
<circle cx="-0.2526" cy="0.3229" r="0.0096" fill="#1d1b19"/>
<circle cx="-0.2396" cy="0.2995" r="0.0088" fill="#1d1b19"/>
<circle cx="-0.2396" cy="0.2734" r="0.0071" fill="#1d1b19"/>
<circle cx="0.2339" cy="0.3210" r="0.0277" fill="#1d1b19"/>
<circle cx="-0.1560" cy="0.3585" r="0.0285" fill="#1d1b19"/>
<circle cx="-0.0026" cy="0.3932" r="0.0071" fill="#1d1b19"/>
<circle cx="-0.0052" cy="0.4219" r="0.0081" fill="#1d1b19"/>
<circle cx="0.0130" cy="0.4401" r="0.0094" fill="#1d1b19"/>
<circle cx="0.0391" cy="0.4427" r="0.0091" fill="#1d1b19"/>
<circle cx="0.0651" cy="0.4323" r="0.0092" fill="#1d1b19"/>
<circle cx="0.0807" cy="0.4115" r="0.0094" fill="#1d1b19"/>
<circle cx="0.0807" cy="0.3880" r="0.0078" fill="#1d1b19"/>
<circle cx="0.0625" cy="0.3672" r="0.0087" fill="#1d1b19"/>
</svg>
